<svg xmlns="http://www.w3.org/2000/svg" xmlns:xlink="http://www.w3.org/1999/xlink" width="840" height="581.04"><rect width="840" height="581.04" rx="5" ry="5" class="a"/><svg y="0%" x="0%"><circle cx="20" cy="20" r="6" fill="#ff5f58"/><circle cx="40" cy="20" r="6" fill="#ffbd2e"/><circle cx="60" cy="20" r="6" fill="#18c132"/></svg><svg height="521.04" viewBox="0 0 80 52.104" width="800" x="15" xmlns="http://www.w3.org/2000/svg" xmlns:xlink="http://www.w3.org/1999/xlink" y="50"><style>@keyframes l{0%{transform:translateX(0)}33.6%{transform:translateX(-80px)}66.9%{transform:translateX(-160px)}to{transform:translateX(-240px)}}.a{fill:#293340}.f{fill:#cdd2e9}.h{fill:#be86e3}.i{fill:#61ba86}.n{fill:#be86e3;font-weight:700}</style><g font-size="1.67" font-family="Monaco,Consolas,Menlo,'Bitstream Vera Sans Mono','Powerline Symbols',monospace"><defs><symbol id="1"><text y="1.67" class="f">************************************************************</text></symbol><symbol id="2"><text y="1.67" class="f">*</text><text x="19.038" y="1.67" class="f">My</text><text x="22.044" y="1.67" fill="#4cb2ff">New</text><text x="26.052" y="1.67" class="h">ReactCLI</text><text x="35.07" y="1.67" class="h">App</text><text x="39.078" y="1.67" class="f">🚀</text><text x="59.118" y="1.67" class="f">*</text></symbol><symbol id="3"><text y="1.67" class="f">*</text><text x="11.022" y="1.67" class="f">◯</text><text x="13.026" y="1.67" class="f">Step</text><text x="18.036" y="1.67" class="f">3</text><text x="30.06" y="1.67" class="f">-----------------------------*</text></symbol><symbol id="4"><text y="1.67" class="f">*</text><text x="11.022" y="1.67" class="i">✓</text><text x="13.026" y="1.67" class="f">Step</text><text x="18.036" y="1.67" class="f">1</text><text x="30.06" y="1.67" class="f">-----------------------------*</text></symbol><symbol id="a"><path fill="transparent" d="M0 0h80v24H0z"/></symbol><symbol id="b"><path fill="#f81ce5" d="M0 0h1.102v2.171H0z"/></symbol></defs><path class="a" d="M0 0h80v52.104H0z"/><g style="animation-duration:3.0116330000000002s;animation-iteration-count:infinite;animation-name:l;animation-timing-function:steps(1,end)"><svg width="320"><svg><use xlink:href="#a"/><use xlink:href="#b" x="-.004" y="13.001"/><use xlink:href="#1"/><use xlink:href="#2" y="2.171"/><text y="6.012" class="f">*</text><text x="11.022" y="6.012" class="f">◯</text><text x="13.026" y="6.012" class="f">Step</text><text x="18.036" y="6.012" class="f">1</text><text x="30.06" y="6.012" class="f">-----------------------------*</text><text y="8.183" class="f">*</text><text x="11.022" y="8.183" class="f">◯</text><text x="13.026" y="8.183" class="f">Step</text><text x="18.036" y="8.183" class="f">2</text><text x="30.06" y="8.183" class="f">|</text><text x="33.066" y="8.183" class="f">Number</text><text x="40.08" y="8.183" class="f">of</text><text x="43.086" y="8.183" class="f">steps</text><text x="49.098" y="8.183" class="f">done:</text><text x="55.11" y="8.183" class="n">0</text><text x="58.116" y="8.183" class="f">|*</text><use xlink:href="#3" y="8.684"/><use xlink:href="#1" y="10.855"/></svg><svg x="80"><use xlink:href="#a"/><use xlink:href="#b" x="-.004" y="13.001"/><use xlink:href="#1"/><use xlink:href="#2" y="2.171"/><use xlink:href="#4" y="4.342"/><text y="8.183" class="f">*</text><text x="11.022" y="8.183" class="f">◯</text><text x="13.026" y="8.183" class="f">Step</text><text x="18.036" y="8.183" class="f">2</text><text x="30.06" y="8.183" class="f">|</text><text x="33.066" y="8.183" class="f">Number</text><text x="40.08" y="8.183" class="f">of</text><text x="43.086" y="8.183" class="f">steps</text><text x="49.098" y="8.183" class="f">done:</text><text x="55.11" y="8.183" class="n">1</text><text x="58.116" y="8.183" class="f">|*</text><use xlink:href="#3" y="8.684"/><use xlink:href="#1" y="10.855"/></svg><svg x="160"><use xlink:href="#a"/><use xlink:href="#b" x="-.004" y="13.001"/><use xlink:href="#1"/><use xlink:href="#2" y="2.171"/><use xlink:href="#4" y="4.342"/><text y="8.183" class="f">*</text><text x="11.022" y="8.183" class="i">✓</text><text x="13.026" y="8.183" class="f">Step</text><text x="18.036" y="8.183" class="f">2</text><text x="30.06" y="8.183" class="f">|</text><text x="33.066" y="8.183" class="f">Number</text><text x="40.08" y="8.183" class="f">of</text><text x="43.086" y="8.183" class="f">steps</text><text x="49.098" y="8.183" class="f">done:</text><text x="55.11" y="8.183" class="n">2</text><text x="58.116" y="8.183" class="f">|*</text><use xlink:href="#3" y="8.684"/><use xlink:href="#1" y="10.855"/></svg><svg x="240"><use xlink:href="#a"/><use xlink:href="#b" x="-.004" y="13.001"/><use xlink:href="#1"/><use xlink:href="#2" y="2.171"/><use xlink:href="#4" y="4.342"/><text y="8.183" class="f">*</text><text x="11.022" y="8.183" class="i">✓</text><text x="13.026" y="8.183" class="f">Step</text><text x="18.036" y="8.183" class="f">2</text><text x="30.06" y="8.183" class="f">|</text><text x="33.066" y="8.183" class="f">Number</text><text x="40.08" y="8.183" class="f">of</text><text x="43.086" y="8.183" class="f">steps</text><text x="49.098" y="8.183" class="f">done:</text><text x="55.11" y="8.183" class="n">3</text><text x="58.116" y="8.183" class="f">|*</text><text y="10.354" class="f">*</text><text x="11.022" y="10.354" class="i">✓</text><text x="13.026" y="10.354" class="f">Step</text><text x="18.036" y="10.354" class="f">3</text><text x="30.06" y="10.354" class="f">-----------------------------*</text><use xlink:href="#1" y="10.855"/></svg></svg></g></g></svg></svg>