<svg xmlns="http://www.w3.org/2000/svg" xmlns:xlink="http://www.w3.org/1999/xlink" width="640" height="233.68"><rect width="640" height="233.68" rx="5" ry="5" class="a"/><svg y="0%" x="0%"><circle cx="20" cy="20" r="6" fill="#ff5f58"/><circle cx="40" cy="20" r="6" fill="#ffbd2e"/><circle cx="60" cy="20" r="6" fill="#18c132"/></svg><svg height="173.68" viewBox="0 0 60 17.368" width="600" x="15" xmlns="http://www.w3.org/2000/svg" xmlns:xlink="http://www.w3.org/1999/xlink" y="50"><style>@keyframes m{0%{transform:translateX(0)}.1%{transform:translateX(-60px)}33.6%{transform:translateX(-120px)}33.7%{transform:translateX(-180px)}66.7%{transform:translateX(-240px)}66.8%{transform:translateX(-300px)}99.9%{transform:translateX(-360px)}to{transform:translateX(-480px)}}.a{fill:#293340}.f{fill:#cdd2e9}.h,.i{fill:#be86e3}.i{font-weight:700}.j{fill:#61ba86}</style><g font-size="1.67" font-family="Monaco,Consolas,Menlo,'Bitstream Vera Sans Mono','Powerline Symbols',monospace"><defs><symbol id="1"><text y="1.67" class="f">************************************************************</text></symbol><symbol id="2"><text y="1.67" class="f">*</text><text x="19.038" y="1.67" class="f">My</text><text x="22.044" y="1.67" fill="#4cb2ff">New</text><text x="26.052" y="1.67" class="h">ReactCLI</text><text x="35.07" y="1.67" class="h">App</text><text x="39.078" y="1.67" class="f">🚀</text><text x="59.118" y="1.67" class="f">*</text></symbol><symbol id="3"><text y="1.67" class="f">*</text><text x="11.022" y="1.67" class="f">◯</text><text x="13.026" y="1.67" class="f">Step</text><text x="18.036" y="1.67" class="f">1</text><text x="30.06" y="1.67" class="f">-----------------------------*</text></symbol><symbol id="4"><text y="1.67" class="f">*</text><text x="11.022" y="1.67" class="f">◯</text><text x="13.026" y="1.67" class="f">Step</text><text x="18.036" y="1.67" class="f">2</text><text x="30.06" y="1.67" class="f">|</text><text x="33.066" y="1.67" class="f">Number</text><text x="40.08" y="1.67" class="f">of</text><text x="43.086" y="1.67" class="f">steps</text><text x="49.098" y="1.67" class="f">done:</text><text x="55.11" y="1.67" class="i">0</text><text x="58.116" y="1.67" class="f">|*</text></symbol><symbol id="5"><text y="1.67" class="f">*</text><text x="11.022" y="1.67" class="f">◯</text><text x="13.026" y="1.67" class="f">Step</text><text x="18.036" y="1.67" class="f">3</text><text x="30.06" y="1.67" class="f">-----------------------------*</text></symbol><symbol id="6"><text y="1.67" class="f">*</text><text x="11.022" y="1.67" class="j">✔︎</text><text x="14.028" y="1.67" class="f">Step</text><text x="19.038" y="1.67" class="f">1</text><text x="30.06" y="1.67" class="f">-----------------------------*</text></symbol><symbol id="7"><text y="1.67" class="f">*</text><text x="11.022" y="1.67" class="f">◯</text><text x="13.026" y="1.67" class="f">Step</text><text x="18.036" y="1.67" class="f">2</text><text x="30.06" y="1.67" class="f">|</text><text x="33.066" y="1.67" class="f">Number</text><text x="40.08" y="1.67" class="f">of</text><text x="43.086" y="1.67" class="f">steps</text><text x="49.098" y="1.67" class="f">done:</text><text x="55.11" y="1.67" class="i">1</text><text x="58.116" y="1.67" class="f">|*</text></symbol><symbol id="8"><text y="1.67" class="f">*</text><text x="11.022" y="1.67" class="j">✔︎</text><text x="14.028" y="1.67" class="f">Step</text><text x="19.038" y="1.67" class="f">2</text><text x="30.06" y="1.67" class="f">|</text><text x="33.066" y="1.67" class="f">Number</text><text x="40.08" y="1.67" class="f">of</text><text x="43.086" y="1.67" class="f">steps</text><text x="49.098" y="1.67" class="f">done:</text><text x="55.11" y="1.67" class="i">2</text><text x="58.116" y="1.67" class="f">|*</text></symbol><symbol id="9"><text y="1.67" class="f">*</text><text x="11.022" y="1.67" class="j">✔︎</text><text x="14.028" y="1.67" class="f">Step</text><text x="19.038" y="1.67" class="f">2</text><text x="30.06" y="1.67" class="f">|</text><text x="33.066" y="1.67" class="f">Number</text><text x="40.08" y="1.67" class="f">of</text><text x="43.086" y="1.67" class="f">steps</text><text x="49.098" y="1.67" class="f">done:</text><text x="55.11" y="1.67" class="i">3</text><text x="58.116" y="1.67" class="f">|*</text></symbol><symbol id="10"><text y="1.67" class="f">*</text><text x="11.022" y="1.67" class="j">✔︎</text><text x="14.028" y="1.67" class="f">Step</text><text x="19.038" y="1.67" class="f">3</text><text x="30.06" y="1.67" class="f">-----------------------------*</text></symbol><symbol id="a"><path fill="transparent" d="M0 0h60v9H0z"/></symbol><symbol id="b"><path fill="#f81ce5" d="M0 0h1.102v2.171H0z"/></symbol></defs><path class="a" d="M0 0h60v17.368H0z"/><g style="animation-duration:3.012013s;animation-iteration-count:infinite;animation-name:m;animation-timing-function:steps(1,end)"><svg width="540"><svg><use xlink:href="#a"/></svg><svg x="60"><use xlink:href="#a"/><use xlink:href="#1"/><use xlink:href="#2" y="2.171"/><use xlink:href="#3" y="4.342"/><use xlink:href="#4" y="6.513"/><use xlink:href="#5" y="8.684"/><use xlink:href="#1" y="10.855"/></svg><svg x="120"><use xlink:href="#a"/><use xlink:href="#1"/><use xlink:href="#2" y="2.171"/><use xlink:href="#3" y="4.342"/><use xlink:href="#4" y="6.513"/><use xlink:href="#5" y="8.684"/><use xlink:href="#1" y="10.855"/></svg><svg x="180"><use xlink:href="#a"/><use xlink:href="#1"/><use xlink:href="#2" y="2.171"/><use xlink:href="#6" y="4.342"/><use xlink:href="#7" y="6.513"/><use xlink:href="#5" y="8.684"/><use xlink:href="#1" y="10.855"/></svg><svg x="240"><use xlink:href="#a"/><use xlink:href="#1"/><use xlink:href="#2" y="2.171"/><use xlink:href="#6" y="4.342"/><use xlink:href="#7" y="6.513"/><use xlink:href="#5" y="8.684"/><use xlink:href="#1" y="10.855"/></svg><svg x="300"><use xlink:href="#a"/><use xlink:href="#1"/><use xlink:href="#2" y="2.171"/><use xlink:href="#6" y="4.342"/><use xlink:href="#8" y="6.513"/><use xlink:href="#5" y="8.684"/><use xlink:href="#1" y="10.855"/></svg><svg x="360"><use xlink:href="#a"/><use xlink:href="#1"/><use xlink:href="#2" y="2.171"/><use xlink:href="#6" y="4.342"/><use xlink:href="#8" y="6.513"/><use xlink:href="#5" y="8.684"/><use xlink:href="#1" y="10.855"/></svg><svg x="420"><use xlink:href="#a"/><use xlink:href="#1"/><use xlink:href="#2" y="2.171"/><use xlink:href="#6" y="4.342"/><use xlink:href="#9" y="6.513"/><use xlink:href="#10" y="8.684"/><use xlink:href="#1" y="10.855"/></svg><svg x="480"><use xlink:href="#a"/><use xlink:href="#b" x="-.004" y="15.172"/><use xlink:href="#1"/><use xlink:href="#2" y="2.171"/><use xlink:href="#6" y="4.342"/><use xlink:href="#9" y="6.513"/><use xlink:href="#10" y="8.684"/><use xlink:href="#1" y="10.855"/></svg></svg></g></g></svg></svg>